<?xml version="1.0" encoding="UTF-8"?>
<svg version="1.1" xmlns="http://www.w3.org/2000/svg" width="120" height="57">
<path d="M0 0 C4.28806873 0.47645208 6.26647487 1.65902484 9 5 C9 5.66 9 6.32 9 7 C10.0725 6.484375 11.145 5.96875 12.25 5.4375 C15.25254899 3.99396683 16.83246499 3.94181906 20 5 C20.06058594 5.69867188 20.12117188 6.39734375 20.18359375 7.1171875 C20.26738281 8.02726563 20.35117188 8.93734375 20.4375 9.875 C20.51871094 10.77992187 20.59992188 11.68484375 20.68359375 12.6171875 C20.86989285 15.01110861 20.86989285 15.01110861 22 17 C23.85961414 12.7494534 24.93204565 8.50066475 26 4 C27.32 4 28.64 4 30 4 C30.495 5.98 30.495 5.98 31 8 C31.99 6.02 32.98 4.04 34 2 C35.859375 2.6171875 35.859375 2.6171875 38 4 C39.265625 6.8203125 39.265625 6.8203125 40.25 10.125 C40.75273437 11.76855469 40.75273437 11.76855469 41.265625 13.4453125 C41.62914063 14.70988281 41.62914063 14.70988281 42 16 C42.6166266 13.10086042 43.0416776 10.40609423 43.25 7.4375 C44 4 44 4 46.25 1.5 C49 0 49 0 51.625 0 C54.57148135 1.24062373 55.59858374 2.11931101 57 5 C56.89599954 9.88802154 55.2450079 12.44095908 52 16 C57.40787385 14.90213575 57.40787385 14.90213575 61 11 C63.625 10.8125 63.625 10.8125 66 11 C66.3125 13.75 66.3125 13.75 66 17 C63.32390638 20.0004686 61.40114978 20.89971256 57.5 21.875 C53.93877662 22.00218655 52.1651817 21.49466914 49 20 C48.01 20 47.02 20 46 20 C45.01 21.485 45.01 21.485 44 23 C44.40958631 25.10087365 44.40958631 25.10087365 45.375 27.1875 C45.91125 28.445625 46.4475 29.70375 47 31 C52.28 31 57.56 31 63 31 C63 32.65 63 34.3 63 36 C62.01 36 61.02 36 60 36 C60 36.66 60 37.32 60 38 C55.71 38 51.42 38 47 38 C46.67 39.98 46.34 41.96 46 44 C45.10806527 46.4699731 44.41395511 47.66565164 42.375 49.3125 C38.77121515 50.35570088 35.50613149 50.23576765 32 49 C28.61592536 45.2775179 27.79946957 42.91299548 28 38 C27.3387915 38.00523682 26.67758301 38.01047363 25.99633789 38.01586914 C23.01840149 38.03657656 20.04048018 38.04964012 17.0625 38.0625 C16.02158203 38.07087891 14.98066406 38.07925781 13.90820312 38.08789062 C12.91884766 38.09111328 11.92949219 38.09433594 10.91015625 38.09765625 C9.53549194 38.10551147 9.53549194 38.10551147 8.13305664 38.11352539 C6 38 6 38 5 37 C4.95936168 35.33382885 4.957279 33.66611905 5 32 C9.40914783 30.89771304 13.48382401 30.92345464 18 31 C18.495 31.99 18.495 31.99 19 33 C19 32.34 19 31.68 19 31 C22.33333333 31 25.66666667 31 29 31 C30.36363208 29.02053408 31.69418644 27.0180755 33 25 C34.75 23.125 34.75 23.125 36 22 C35.67 21.67 35.34 21.34 35 21 C34.071875 21.2784375 34.071875 21.2784375 33.125 21.5625 C32.073125 21.7790625 32.073125 21.7790625 31 22 C30.01 21.34 29.02 20.68 28 20 C27.649375 20.515625 27.29875 21.03125 26.9375 21.5625 C25 23 25 23 21.5 23 C18 22 18 22 16.125 19.75 C15.05793188 17.14161127 14.39782746 14.78479225 14 12 C13.34 12 12.68 12 12 12 C12.061875 13.093125 12.12375 14.18625 12.1875 15.3125 C12 19 12 19 10.5 20.9375 C10.005 21.288125 9.51 21.63875 9 22 C6.5625 21.3125 6.5625 21.3125 4 20 C2.51856827 16.19060412 3.17785294 12.92803595 4 9 C0.27870632 9 -0.10484489 9.7822314 -2.6875 12.3125 C-11.56322944 20.19848983 -20.72907763 19.5831721 -32 19 C-33.66735821 18.67014323 -35.33428566 18.33806011 -37 18 C-37.721875 18.28875 -38.44375 18.5775 -39.1875 18.875 C-43.30671961 20.52268784 -47.57614309 20.89821214 -52 21 C-52.66 20.67 -53.32 20.34 -54 20 C-54 18.35 -54 16.7 -54 15 C-53.01257812 14.86722656 -52.02515625 14.73445313 -51.0078125 14.59765625 C-49.72648437 14.42105469 -48.44515625 14.24445312 -47.125 14.0625 C-45.84882812 13.88847656 -44.57265625 13.71445312 -43.2578125 13.53515625 C-40.12440546 13.18566773 -40.12440546 13.18566773 -38 12 C-37.29788106 10.34795544 -36.63028587 8.68076231 -36 7 C-34.44014791 5.44014791 -32.91093902 5.75547656 -30.75 5.6875 C-27.23750892 5.72111235 -26.0728477 5.95688605 -22.9375 7.8125 C-21 10 -21 10 -21 13 C-13.07916604 12.20467036 -8.37456483 9.88347282 -3 4 C-1.98013119 2.68180222 -0.97407661 1.35238771 0 0 Z M50 6 C49.67 7.32 49.34 8.64 49 10 C49.66 9.67 50.32 9.34 51 9 C50.67 8.01 50.34 7.02 50 6 Z M38 27 C37.34 28.32 36.68 29.64 36 31 C37.32 31 38.64 31 40 31 C39.67 29.68 39.34 28.36 39 27 C38.67 27 38.34 27 38 27 Z M13 33 C13.33 33.99 13.66 34.98 14 36 C14 35.01 14 34.02 14 33 C13.67 33 13.34 33 13 33 Z M37 33 C37.33 33.99 37.66 34.98 38 36 C38 35.01 38 34.02 38 33 C37.67 33 37.34 33 37 33 Z M48 33 C48 33.66 48 34.32 48 35 C48.66 34.67 49.32 34.34 50 34 C49.34 33.67 48.68 33.34 48 33 Z M54 33 C54.33 33.99 54.66 34.98 55 36 C55 35.01 55 34.02 55 33 C54.67 33 54.34 33 54 33 Z M33 36 C33.33 38.31 33.66 40.62 34 43 C35.65 43.33 37.3 43.66 39 44 C41.30671915 41.28450846 41.30671915 41.28450846 40.625 38.8125 C40.41875 38.214375 40.2125 37.61625 40 37 C38.35 37.66 36.7 38.32 35 39 C35 38.01 35 37.02 35 36 C34.34 36 33.68 36 33 36 Z " fill="#040404" transform="translate(54,5)"/>
<path d="M0 0 C1.9375 0.375 1.9375 0.375 4 1 C4.33 1.66 4.66 2.32 5 3 C4.67 3.99 4.34 4.98 4 6 C2.35 5.67 0.7 5.34 -1 5 C-0.67 3.35 -0.34 1.7 0 0 Z " fill="#030303" transform="translate(86,0)"/>
<path d="M0 0 C0.99 0 1.98 0 3 0 C2.67 0.66 2.34 1.32 2 2 C1.34 1.34 0.68 0.68 0 0 Z " fill="#020202" transform="translate(22,9)"/>
<path d="M0 0 C0.99 0.495 0.99 0.495 2 1 C1.01 1.495 1.01 1.495 0 2 C0 1.34 0 0.68 0 0 Z " fill="#020202" transform="translate(16,11)"/>
<path d="" fill="#020202" transform="translate(0,0)"/>
</svg>
